HIERARCHY
ROOT joint_Root
{
	OFFSET 0.0 0.0 0.0
	CHANNELS 6 Xposition Yposition Zposition Zrotation Xrotation Yrotation 
	JOINT Hips
	{
		OFFSET 4.5925 91.4895 -427.239
		CHANNELS 6 Xposition Yposition Zposition Zrotation Xrotation Yrotation 
		JOINT Spine
		{
			OFFSET 15.7357 0.0 0.0
			CHANNELS 6 Xposition Yposition Zposition Zrotation Xrotation Yrotation 
			JOINT Chest
			{
				OFFSET 8.98455 -0.406207 0.0
				CHANNELS 6 Xposition Yposition Zposition Zrotation Xrotation Yrotation 
				JOINT Neck
				{
					OFFSET 16.3773 0.0 0.0
					CHANNELS 6 Xposition Yposition Zposition Zrotation Xrotation Yrotation 
					JOINT Head
					{
						OFFSET 6.45672 0.0 0.0
						CHANNELS 6 Xposition Yposition Zposition Zrotation Xrotation Yrotation 
						End Site
						{
							OFFSET 0.0 0.0 0.0
						}
					}
				}
				JOINT Shoulder_L
				{
					OFFSET 12.9942 -0.242716 4.98039
					CHANNELS 6 Xposition Yposition Zposition Zrotation Xrotation Yrotation 
					JOINT UpperArm_L
					{
						OFFSET 5.34809 0.0 0.0
						CHANNELS 6 Xposition Yposition Zposition Zrotation Xrotation Yrotation 
						JOINT LowerArm_L
						{
							OFFSET 24.3286 1.87007e-05 0.0
							CHANNELS 6 Xposition Yposition Zposition Zrotation Xrotation Yrotation 
							JOINT Hand_L
							{
								OFFSET 22.2916 0.0 0.0
								CHANNELS 6 Xposition Yposition Zposition Zrotation Xrotation Yrotation 
								End Site
								{
									OFFSET 0.0 0.0 0.0
								}
							}
						}
					}
				}
				JOINT Shoulder_R
				{
					OFFSET 12.9945 -0.242716 -4.98039
					CHANNELS 6 Xposition Yposition Zposition Zrotation Xrotation Yrotation 
					JOINT UpperArm_R
					{
						OFFSET -5.34813 0.0 0.0
						CHANNELS 6 Xposition Yposition Zposition Zrotation Xrotation Yrotation 
						JOINT LowerArm_R
						{
							OFFSET -24.3289 0.000322201 0.0
							CHANNELS 6 Xposition Yposition Zposition Zrotation Xrotation Yrotation 
							JOINT Hand_R
							{
								OFFSET -22.2915 -0.000108084 0.0
								CHANNELS 6 Xposition Yposition Zposition Zrotation Xrotation Yrotation 
								End Site
								{
									OFFSET 0.0 0.0 0.0
								}
							}
						}
					}
				}
			}
		}
		JOINT UpperLeg_L
		{
			OFFSET -2.19248 -6.46944 0.0
			CHANNELS 6 Xposition Yposition Zposition Zrotation Xrotation Yrotation 
			JOINT LowerLeg_L
			{
				OFFSET 39.0811 0.0 -1.23785e-05
				CHANNELS 6 Xposition Yposition Zposition Zrotation Xrotation Yrotation 
				JOINT Foot_L
				{
					OFFSET 40.9854 0.0 -1.26872e-05
					CHANNELS 6 Xposition Yposition Zposition Zrotation Xrotation Yrotation 
					JOINT Toes_L
					{
						OFFSET 11.7543 0.0 0.0
						CHANNELS 6 Xposition Yposition Zposition Zrotation Xrotation Yrotation 
						End Site
						{
							OFFSET 0.0 0.0 0.0
						}
					}
				}
			}
		}
		JOINT UpperLeg_R
		{
			OFFSET -2.19251 6.46944 0.0
			CHANNELS 6 Xposition Yposition Zposition Zrotation Xrotation Yrotation 
			JOINT LowerLeg_R
			{
				OFFSET -39.0811 -0.00228153 -0.0401928
				CHANNELS 6 Xposition Yposition Zposition Zrotation Xrotation Yrotation 
				JOINT Foot_R
				{
					OFFSET -40.9854 0.0 0.0
					CHANNELS 6 Xposition Yposition Zposition Zrotation Xrotation Yrotation 
					JOINT Toes_R
					{
						OFFSET -11.7543 0.0 0.0
						CHANNELS 6 Xposition Yposition Zposition Zrotation Xrotation Yrotation 
						End Site
						{
							OFFSET 0.0 0.0 0.0
						}
					}
				}
			}
		}
	}
}
MOTION
Frames:	5
Frame Time:	0.0333333
0.000000 0.000000 0.000000 0.000000 0.000000 -0.000000 -4.058270 88.738200 51.826000 -87.270600 1.062370 178.250000 15.735700 0.000005 -0.000001 70.347400 83.728500 -69.880400 8.984550 -0.406207 -0.000000 4.072910 -4.227190 1.083630 16.377300 -0.000001 -0.000001 -2.231970 -3.273970 1.145310 6.456720 -0.000001 -0.000000 -2.504610 -0.938066 2.258830 12.994200 -0.242716 4.980390 -90.339600 1.463300 -76.931500 5.348090 -0.000007 -0.000001 -63.945500 15.212200 -34.511700 24.328600 0.000019 0.000005 2.194320 -0.018896 -90.482500 22.291600 -0.000001 0.000005 21.555200 5.505390 -6.750600 12.994500 -0.242716 -4.980390 88.163100 9.415520 -78.907900 -5.348130 -0.000001 -0.000004 -65.563800 28.845200 3.116080 -24.328900 0.000322 -0.000009 -17.551000 -1.419860 -85.519800 -22.291500 -0.000108 -0.000004 29.517100 5.665860 -16.786700 -2.192480 -6.469440 -0.000000 -177.520000 -5.256230 -6.081100 39.081100 -0.000007 -0.000012 0.005240 -0.006525 38.756700 40.985400 -0.000006 -0.000013 4.127430 0.741047 -76.051300 11.754300 -0.000000 0.000003 -0.738019 -0.880022 -20.340500 -2.192510 6.469440 -0.000001 -172.696000 14.039500 146.953000 -39.081100 -0.002282 -0.040193 0.012208 -0.007987 48.267100 -40.985400 0.000008 0.000006 3.988250 -1.846380 -63.425900 -11.754300 -0.000006 -0.000006 -0.017178 -0.151121 -22.742500
0.000000 0.000000 0.000000 0.000000 0.000000 -0.000000 -3.718560 89.413200 46.748300 -87.332000 -0.652014 177.001000 15.735700 0.000005 -0.000001 63.760900 83.918800 -63.105900 8.984550 -0.406207 -0.000000 3.186720 -5.397650 1.459750 16.377300 -0.000001 -0.000001 -2.548240 -3.326780 1.014220 6.456720 -0.000001 -0.000000 -2.744470 -0.584219 2.280120 12.994200 -0.242716 4.980390 -90.039900 0.172256 -76.949600 5.348090 -0.000007 -0.000001 -62.996100 15.180100 -39.595000 24.328600 0.000019 0.000005 2.840090 -0.157636 -93.169800 22.291600 -0.000001 0.000005 21.097500 5.502040 -6.615290 12.994500 -0.242716 -4.980390 88.253600 8.329010 -78.113000 -5.348130 -0.000001 -0.000004 -70.162800 27.825600 12.485700 -24.328900 0.000322 -0.000009 -18.534400 -1.840040 -84.528600 -22.291500 -0.000108 -0.000004 28.715300 5.666100 -16.817100 -2.192480 -6.469440 -0.000000 -176.715000 -4.623470 -4.372250 39.081100 -0.000007 -0.000012 0.007164 -0.009193 37.921700 40.985400 -0.000006 -0.000013 3.642490 2.796400 -71.278100 11.754300 -0.000000 0.000003 -0.035244 -0.240577 -26.446700 -2.192510 6.469440 -0.000001 -170.765000 15.472200 147.474000 -39.081100 -0.002282 -0.040193 0.006632 -0.004866 34.463300 -40.985400 0.000008 0.000006 2.815960 0.452187 -65.828000 -11.754300 -0.000006 -0.000006 -0.017855 -0.155104 -22.906300
0.000000 0.000000 0.000000 0.000000 0.000000 -0.000000 -3.392320 89.628500 41.232700 -87.827200 -2.010720 176.577000 15.735700 0.000005 -0.000001 58.493800 83.836200 -57.848800 8.984550 -0.406207 -0.000000 2.796940 -6.464330 1.447690 16.377300 -0.000001 -0.000001 -2.703680 -3.259790 1.016880 6.456720 -0.000001 -0.000000 -2.760760 -0.185229 2.433410 12.994200 -0.242716 4.980390 -89.812200 -0.816824 -77.050200 5.348090 -0.000007 -0.000001 -62.405200 14.651500 -42.541600 24.328600 0.000019 0.000005 3.328130 -0.334221 -95.726500 22.291600 -0.000001 0.000005 20.109600 5.500990 -6.572090 12.994500 -0.242716 -4.980390 88.436000 7.239180 -77.774300 -5.348130 -0.000001 -0.000004 -73.682000 26.426400 19.125600 -24.328900 0.000322 -0.000009 -19.628500 -2.028940 -84.329600 -22.291500 -0.000108 -0.000004 28.105400 5.665890 -16.787600 -2.192480 -6.469440 -0.000000 -176.081000 -4.186360 -3.041350 39.081100 -0.000007 -0.000012 0.011932 -0.014549 39.350700 40.985400 -0.000006 -0.000013 2.820250 5.316820 -65.217000 11.754300 -0.000000 0.000003 -0.100996 -0.447034 -35.239600 -2.192510 6.469440 -0.000001 -169.376000 16.929500 147.444000 -39.081100 -0.002282 -0.040193 0.074080 -0.137827 27.179700 -40.985400 0.000008 0.000006 4.308250 3.998360 -66.707300 -11.754300 -0.000006 -0.000006 -0.019844 -0.166423 -23.372200
0.000000 0.000000 0.000000 0.000000 0.000000 -0.000000 -3.062620 89.270000 35.403700 -88.498000 -2.827260 177.008000 15.735700 0.000005 -0.000001 56.205900 83.618700 -55.687400 8.984550 -0.406207 -0.000000 2.892470 -7.113930 1.216820 16.377300 -0.000001 -0.000001 -2.620250 -3.264900 0.922916 6.456720 -0.000001 -0.000000 -2.711050 0.061581 2.741180 12.994200 -0.242716 4.980390 -89.737000 -1.134530 -76.949400 5.348090 -0.000007 -0.000001 -61.742000 14.426700 -43.920600 24.328600 0.000019 0.000005 3.440990 -0.461849 -97.636400 22.291600 -0.000001 0.000005 19.851200 5.495510 -6.353840 12.994500 -0.242716 -4.980390 88.477500 6.850920 -77.438800 -5.348130 -0.000001 -0.000004 -75.215600 25.811900 22.505900 -24.328900 0.000322 -0.000009 -20.489500 -1.770060 -85.273500 -22.291500 -0.000108 -0.000004 27.504000 5.665460 -16.731500 -2.192480 -6.469440 -0.000000 -175.633000 -3.234090 -2.811680 39.081100 -0.000007 -0.000012 0.019898 -0.020554 44.066800 40.985400 -0.000006 -0.000013 1.727930 7.497110 -58.122100 11.754300 -0.000000 0.000003 -0.159419 -0.573016 -40.872100 -2.192510 6.469440 -0.000001 -169.341000 17.641500 146.866000 -39.081100 -0.002282 -0.040193 0.102687 -0.179840 28.925900 -40.985400 0.000008 0.000006 6.841030 5.942290 -64.323800 -11.754300 -0.000006 -0.000006 -0.021457 -0.175231 -23.735200
0.000000 0.000000 0.000000 0.000000 0.000000 -0.000000 -2.755200 88.157700 29.274400 -89.132800 -3.396910 178.325000 15.735700 0.000005 -0.000001 57.628400 83.358100 -57.254400 8.984550 -0.406207 -0.000000 3.499720 -7.117520 0.965680 16.377300 -0.000001 -0.000001 -2.437650 -3.525050 0.778569 6.456720 -0.000001 -0.000000 -2.767200 -0.054325 2.743130 12.994200 -0.242716 4.980390 -89.775700 -0.950008 -76.710700 5.348090 -0.000007 -0.000001 -60.943400 15.021500 -44.250500 24.328600 0.000019 0.000005 3.251190 -0.491139 -98.581400 22.291600 -0.000001 0.000005 20.080800 5.492290 -6.226040 12.994500 -0.242716 -4.980390 88.383900 6.958130 -76.890400 -5.348130 -0.000001 -0.000004 -75.234200 25.787300 22.898500 -24.328900 0.000322 -0.000009 -20.000100 -0.992128 -87.276600 -22.291500 -0.000108 -0.000004 27.036500 5.663870 -16.522400 -2.192480 -6.469440 -0.000000 -175.342000 -1.750390 -3.924260 39.081100 -0.000007 -0.000012 0.023317 -0.018065 52.226500 40.985400 -0.000006 -0.000013 0.952587 9.405690 -50.291900 11.754300 -0.000000 0.000003 -0.120670 -0.493204 -37.274400 -2.192510 6.469440 -0.000001 -171.544000 15.713600 147.269000 -39.081100 -0.002282 -0.040193 0.063728 -0.081921 36.419600 -40.985400 0.000008 0.000006 8.131430 3.337760 -58.675500 -11.754300 -0.000006 -0.000006 -0.016598 -0.147655 -22.600000
